<svg width="11" height="11" viewBox="0 0 11 11" fill="none" xmlns="http://www.w3.org/2000/svg">
<path d="M6.61996 7.99839C6.72897 8.0053 6.8382 7.9886 6.9402 7.94941C7.04219 7.91021 7.13457 7.84946 7.21104 7.77127L7.62087 7.25779C7.76158 7.10166 7.95268 7.00024 8.1606 6.97135C8.36852 6.94245 8.57994 6.98793 8.75772 7.0998C9.10688 7.29803 9.44557 7.51424 9.77242 7.74757C10.0798 7.97667 10.7123 8.50397 10.7142 8.50397C10.861 8.62568 10.9588 8.79656 10.9896 8.985C11.0204 9.17344 10.9821 9.36667 10.8817 9.52895C10.6551 9.92147 10.3678 10.2754 10.0305 10.5776C9.7894 10.798 9.48959 10.9435 9.16754 10.9963C9.12565 11.0012 9.08333 11.0012 9.04144 10.9963C8.91701 10.9971 8.79327 10.9777 8.67497 10.9391V10.9252C8.23954 10.8028 7.5125 10.4947 6.31062 9.82519C5.60624 9.45099 4.93519 9.0169 4.30487 8.52767C3.99074 8.28232 3.69139 8.01854 3.40838 7.7377L3.37686 7.70807L3.3473 7.67648L3.31775 7.64685L3.28623 7.61723C3.00706 7.33262 2.74395 7.03262 2.49811 6.71864C1.99996 6.0926 1.5557 5.42531 1.17013 4.72397C0.502205 3.51136 0.184988 2.78459 0.0726816 2.35406H0.0588896C0.0209206 2.23538 0.0022924 2.11135 0.0037217 1.98673C-0.00124057 1.94474 -0.00124057 1.90231 0.0037217 1.86033C0.0553756 1.529 0.202631 1.22007 0.427334 0.971613C0.728732 0.633412 1.08189 0.345422 1.47356 0.118445C1.63506 0.0181497 1.82726 -0.020294 2.0148 0.0101884C2.20233 0.0406707 2.37257 0.138027 2.49417 0.284338C2.49417 0.284338 3.02221 0.920263 3.24879 1.22835C3.47537 1.53644 3.71378 1.886 3.91081 2.23556C4.02165 2.41399 4.06657 2.62573 4.03777 2.83393C4.00897 3.04213 3.90827 3.23362 3.75318 3.3751L3.23894 3.7839C3.16129 3.86073 3.10105 3.95341 3.06229 4.05563C3.02353 4.15786 3.00718 4.26725 3.01433 4.37638C3.01433 4.37638 3.77683 7.26964 6.61996 7.99839Z" fill="#6FC661"/>
</svg>
