<svg width="134" height="23" viewBox="0 0 134 23" fill="none" xmlns="http://www.w3.org/2000/svg">
<path d="M29.946 9.568C29.862 9.484 29.706 9.37 29.478 9.226C29.262 9.082 28.992 8.944 28.668 8.812C28.356 8.68 28.014 8.566 27.642 8.47C27.27 8.362 26.892 8.308 26.508 8.308C25.836 8.308 25.326 8.434 24.978 8.686C24.642 8.938 24.474 9.292 24.474 9.748C24.474 10.096 24.582 10.372 24.798 10.576C25.014 10.78 25.338 10.954 25.77 11.098C26.202 11.242 26.742 11.398 27.39 11.566C28.23 11.77 28.956 12.022 29.568 12.322C30.192 12.61 30.666 12.994 30.99 13.474C31.326 13.942 31.494 14.566 31.494 15.346C31.494 16.03 31.368 16.618 31.116 17.11C30.864 17.59 30.516 17.98 30.072 18.28C29.628 18.58 29.124 18.802 28.56 18.946C27.996 19.078 27.396 19.144 26.76 19.144C26.124 19.144 25.488 19.078 24.852 18.946C24.216 18.814 23.604 18.628 23.016 18.388C22.428 18.136 21.888 17.836 21.396 17.488L22.494 15.346C22.602 15.454 22.794 15.598 23.07 15.778C23.346 15.946 23.682 16.12 24.078 16.3C24.474 16.468 24.906 16.612 25.374 16.732C25.842 16.852 26.316 16.912 26.796 16.912C27.468 16.912 27.978 16.798 28.326 16.57C28.674 16.342 28.848 16.018 28.848 15.598C28.848 15.214 28.71 14.914 28.434 14.698C28.158 14.482 27.774 14.296 27.282 14.14C26.79 13.972 26.208 13.792 25.536 13.6C24.732 13.372 24.06 13.12 23.52 12.844C22.98 12.556 22.578 12.196 22.314 11.764C22.05 11.332 21.918 10.792 21.918 10.144C21.918 9.268 22.122 8.536 22.53 7.948C22.95 7.348 23.514 6.898 24.222 6.598C24.93 6.286 25.716 6.13 26.58 6.13C27.18 6.13 27.744 6.196 28.272 6.328C28.812 6.46 29.316 6.634 29.784 6.85C30.252 7.066 30.672 7.3 31.044 7.552L29.946 9.568ZM42.2451 16.822V19H33.3711V6.22H42.0831V8.398H35.8551V11.476H41.2371V13.492H35.8551V16.822H42.2451ZM43.1791 12.52C43.1791 11.74 43.3171 10.978 43.5931 10.234C43.8811 9.478 44.2951 8.794 44.8351 8.182C45.3751 7.558 46.0351 7.066 46.8151 6.706C47.5951 6.334 48.4831 6.148 49.4791 6.148C50.6551 6.148 51.6691 6.406 52.5211 6.922C53.3851 7.438 54.0271 8.11 54.4471 8.938L52.5391 10.252C52.3231 9.772 52.0411 9.394 51.6931 9.118C51.3451 8.83 50.9731 8.632 50.5771 8.524C50.1811 8.404 49.7911 8.344 49.4071 8.344C48.7831 8.344 48.2371 8.47 47.7691 8.722C47.3131 8.974 46.9291 9.304 46.6171 9.712C46.3051 10.12 46.0711 10.576 45.9151 11.08C45.7711 11.584 45.6991 12.088 45.6991 12.592C45.6991 13.156 45.7891 13.702 45.9691 14.23C46.1491 14.746 46.4011 15.208 46.7251 15.616C47.0611 16.012 47.4571 16.33 47.9131 16.57C48.3811 16.798 48.8911 16.912 49.4431 16.912C49.8391 16.912 50.2411 16.846 50.6491 16.714C51.0571 16.582 51.4351 16.372 51.7831 16.084C52.1311 15.796 52.4011 15.424 52.5931 14.968L54.6271 16.138C54.3751 16.774 53.9611 17.314 53.3851 17.758C52.8211 18.202 52.1851 18.538 51.4771 18.766C50.7691 18.994 50.0671 19.108 49.3711 19.108C48.4591 19.108 47.6251 18.922 46.8691 18.55C46.1131 18.166 45.4591 17.662 44.9071 17.038C44.3671 16.402 43.9411 15.694 43.6291 14.914C43.3291 14.122 43.1791 13.324 43.1791 12.52ZM61.7109 19.09C60.6909 19.09 59.8209 18.922 59.1009 18.586C58.3929 18.238 57.8169 17.764 57.3729 17.164C56.9409 16.564 56.6229 15.886 56.4189 15.13C56.2149 14.362 56.1129 13.564 56.1129 12.736V6.22H58.5969V12.736C58.5969 13.264 58.6449 13.78 58.7409 14.284C58.8489 14.776 59.0229 15.22 59.2629 15.616C59.5029 16.012 59.8209 16.324 60.2169 16.552C60.6129 16.78 61.1049 16.894 61.6929 16.894C62.2929 16.894 62.7909 16.78 63.1869 16.552C63.5949 16.312 63.9129 15.994 64.1409 15.598C64.3809 15.202 64.5549 14.758 64.6629 14.266C64.7709 13.762 64.8249 13.252 64.8249 12.736V6.22H67.2909V12.736C67.2909 13.612 67.1829 14.434 66.9669 15.202C66.7629 15.97 66.4329 16.648 65.9769 17.236C65.5329 17.812 64.9569 18.268 64.2489 18.604C63.5409 18.928 62.6949 19.09 61.7109 19.09ZM69.7929 19V6.22H75.4449C76.0329 6.22 76.5729 6.34 77.0649 6.58C77.5689 6.82 78.0009 7.144 78.3609 7.552C78.7329 7.96 79.0149 8.416 79.2069 8.92C79.4109 9.424 79.5129 9.94 79.5129 10.468C79.5129 11.008 79.4169 11.53 79.2249 12.034C79.0449 12.526 78.7809 12.958 78.4329 13.33C78.0849 13.702 77.6769 13.99 77.2089 14.194L80.1249 19H77.3889L74.7609 14.716H72.2769V19H69.7929ZM72.2769 12.538H75.3909C75.7029 12.538 75.9789 12.448 76.2189 12.268C76.4589 12.076 76.6509 11.824 76.7949 11.512C76.9389 11.2 77.0109 10.852 77.0109 10.468C77.0109 10.06 76.9269 9.706 76.7589 9.406C76.5909 9.094 76.3749 8.848 76.1109 8.668C75.8589 8.488 75.5829 8.398 75.2829 8.398H72.2769V12.538ZM90.6376 16.822V19H81.7636V6.22H90.4756V8.398H84.2476V11.476H89.6296V13.492H84.2476V16.822H90.6376ZM92.5742 19V6.22H97.2182C98.6102 6.22 99.7742 6.508 100.71 7.084C101.646 7.648 102.348 8.416 102.816 9.388C103.284 10.348 103.518 11.416 103.518 12.592C103.518 13.888 103.26 15.016 102.744 15.976C102.228 16.936 101.496 17.68 100.548 18.208C99.6122 18.736 98.5022 19 97.2182 19H92.5742ZM101.016 12.592C101.016 11.764 100.866 11.038 100.566 10.414C100.266 9.778 99.8342 9.286 99.2702 8.938C98.7062 8.578 98.0222 8.398 97.2182 8.398H95.0582V16.822H97.2182C98.0342 16.822 98.7242 16.642 99.2882 16.282C99.8522 15.91 100.278 15.406 100.566 14.77C100.866 14.122 101.016 13.396 101.016 12.592ZM110.913 19.09C109.977 19.09 109.125 18.91 108.357 18.55C107.601 18.19 106.947 17.704 106.395 17.092C105.855 16.468 105.435 15.772 105.135 15.004C104.835 14.224 104.685 13.426 104.685 12.61C104.685 11.758 104.841 10.948 105.153 10.18C105.477 9.4 105.915 8.71 106.467 8.11C107.031 7.498 107.691 7.018 108.447 6.67C109.215 6.31 110.055 6.13 110.967 6.13C111.891 6.13 112.731 6.316 113.487 6.688C114.255 7.06 114.909 7.558 115.449 8.182C115.989 8.806 116.409 9.502 116.709 10.27C117.009 11.038 117.159 11.83 117.159 12.646C117.159 13.486 117.003 14.296 116.691 15.076C116.379 15.844 115.941 16.534 115.377 17.146C114.825 17.746 114.165 18.22 113.397 18.568C112.641 18.916 111.813 19.09 110.913 19.09ZM107.205 12.61C107.205 13.162 107.289 13.696 107.457 14.212C107.625 14.728 107.865 15.19 108.177 15.598C108.501 15.994 108.891 16.312 109.347 16.552C109.815 16.78 110.343 16.894 110.931 16.894C111.531 16.894 112.065 16.774 112.533 16.534C113.001 16.282 113.391 15.952 113.703 15.544C114.015 15.124 114.249 14.662 114.405 14.158C114.573 13.642 114.657 13.126 114.657 12.61C114.657 12.058 114.567 11.53 114.387 11.026C114.219 10.51 113.973 10.054 113.649 9.658C113.337 9.25 112.947 8.932 112.479 8.704C112.023 8.464 111.507 8.344 110.931 8.344C110.319 8.344 109.779 8.47 109.311 8.722C108.855 8.962 108.471 9.286 108.159 9.694C107.847 10.102 107.607 10.558 107.439 11.062C107.283 11.566 107.205 12.082 107.205 12.61ZM129.486 19V10.612L126.21 16.858H124.824L121.548 10.612V19H119.064V6.22H121.728L125.508 13.492L129.324 6.22H131.97V19H129.486Z" fill="#707070"/>
<rect y="8.27274" width="13" height="11.8182" rx="1" fill="#6FC661"/>
<rect x="2.18182" y="1" width="8.63636" height="8.63636" rx="1" stroke="#6FC661" stroke-width="2"/>
</svg>
