<svg width="20" height="20" viewBox="0 0 20 20" fill="none" xmlns="http://www.w3.org/2000/svg">
<g clip-path="url(#clip0_103_3)">
<path d="M10 20C15.5228 20 20 15.5228 20 10C20 4.47715 15.5228 0 10 0C4.47715 0 0 4.47715 0 10C0 15.5228 4.47715 20 10 20Z" fill="#25D366"/>
<path d="M5.10791 14.9767L5.81024 12.413C5.26689 11.4695 5.04996 10.3732 5.19308 9.29388C5.3362 8.21458 5.83137 7.21264 6.60184 6.44339C7.3723 5.67413 8.37502 5.18053 9.45454 5.03911C10.5341 4.89769 11.6301 5.11634 12.5727 5.66117C13.5153 6.20601 14.2519 7.04658 14.6682 8.05259C15.0845 9.0586 15.1573 10.1739 14.8753 11.2254C14.5933 12.277 13.9723 13.2062 13.1085 13.869C12.2447 14.5317 11.1864 14.891 10.0977 14.8912C9.27181 14.8907 8.4592 14.6834 7.73396 14.2884L5.10791 14.9767ZM7.8521 13.3953L8.0028 13.4884C8.6365 13.8636 9.35934 14.0619 10.0958 14.0623C11.0078 14.0625 11.894 13.7596 12.6151 13.2012C13.3362 12.6428 13.8513 11.8606 14.0794 10.9776C14.3075 10.0945 14.2357 9.16074 13.8752 8.32299C13.5147 7.48523 12.8861 6.79103 12.088 6.34951C11.29 5.90799 10.3679 5.74419 9.46664 5.88387C8.56538 6.02355 7.7361 6.45878 7.10916 7.12114C6.48223 7.7835 6.09319 8.63544 6.00321 9.543C5.91324 10.4506 6.12742 11.3623 6.6121 12.1349L6.70512 12.2902L6.28931 13.8074L7.8521 13.3953Z" fill="white"/>
<path fill-rule="evenodd" clip-rule="evenodd" d="M12.5897 11.12C12.559 11.0679 12.4763 11.0372 12.3525 10.9758C12.2288 10.9144 11.6214 10.6149 11.5079 10.573C11.3944 10.5312 11.3125 10.5116 11.2288 10.6353C11.1451 10.7591 10.9097 11.0372 10.8381 11.12C10.7665 11.2028 10.693 11.213 10.5702 11.1507C10.2076 11.0051 9.87304 10.7977 9.58137 10.5377C9.3111 10.2877 9.07943 9.99894 8.89393 9.68092C8.82137 9.5572 8.88556 9.49487 8.94788 9.42882C9.01021 9.36278 9.0716 9.28371 9.13393 9.21208C9.18508 9.14968 9.22676 9.0801 9.25765 9.00557C9.27393 8.97139 9.28152 8.93373 9.27973 8.89591C9.27795 8.8581 9.26684 8.82131 9.24741 8.78882C9.21672 8.72743 8.96835 8.11906 8.86602 7.87162C8.76369 7.62417 8.66416 7.66324 8.58695 7.65859C8.50974 7.65394 8.43253 7.65859 8.35067 7.65859C8.2871 7.65964 8.22444 7.67401 8.16676 7.70077C8.10908 7.72752 8.05765 7.76608 8.01579 7.81394C7.87706 7.94548 7.76702 8.10428 7.69258 8.28037C7.61815 8.45646 7.58092 8.64603 7.58323 8.8372C7.58323 9.44557 8.02602 10.0335 8.08835 10.1163C8.15067 10.1991 8.95998 11.4474 10.2 11.9823C10.4302 12.0817 10.6656 12.1686 10.9051 12.2428C11.1573 12.3194 11.4238 12.3362 11.6837 12.2921C11.9209 12.2567 12.4149 11.9925 12.5209 11.7042C12.6269 11.4158 12.6204 11.1711 12.5897 11.12Z" fill="white"/>
</g>
<defs>
<clipPath id="clip0_103_3">
<rect width="20" height="20" fill="white"/>
</clipPath>
</defs>
</svg>
